<?xml version="1.0" encoding="UTF-8" standalone="no"?>
<!DOCTYPE svg PUBLIC "-//W3C//DTD SVG 1.1//EN" "http://www.w3.org/Graphics/SVG/1.1/DTD/svg11.dtd">
<svg width="100%" height="100%" viewBox="0 0 104 56" version="1.1" xmlns="http://www.w3.org/2000/svg" xmlns:xlink="http://www.w3.org/1999/xlink" xml:space="preserve" xmlns:serif="http://www.serif.com/" style="fill-rule:evenodd;clip-rule:evenodd;stroke-linejoin:round;stroke-miterlimit:2;">
    <g transform="matrix(1,0,0,1,-8.08396,0)">
        <g transform="matrix(1,0,0,1,0.0743212,0)">
            <g transform="matrix(1,0,0,1,13.75,0)">
                <path d="M45.1,21.4L47.9,21.4C48.5,21.4 49.1,21.4 49.7,21.3C54.1,20.7 55.5,17.6 55.5,15.4C55.5,14.4 55.5,9.6 49.5,9.3L45.2,9.3C44.9,9.3 44.6,9.6 44.6,9.9L44.6,20.7C44.5,21.1 44.7,21.4 45.1,21.4" style="fill:rgb(255,184,55);fill-rule:nonzero;"/>
            </g>
            <g transform="matrix(1,0,0,1,13.75,0)">
                <path d="M44.9,26.9C44.7,26.7 44.5,26.8 44.5,27.1L44.5,38.8C44.5,39.2 44.8,39.4 45.1,39.4L56.6,39.4C56.9,39.4 57.2,39.2 56.9,38.9L44.9,26.9Z" style="fill:rgb(255,184,55);fill-rule:nonzero;"/>
            </g>
            <g transform="matrix(1,0,0,1,13.75,0)">
                <path d="M25.8,14.6C25.9,14.4 26.2,14.4 26.2,14.7L26.2,26.9L18.2,26.9L25.8,14.6ZM35.2,10.1L35.2,2.6C35.3,2.3 35,2 34.6,2L23.2,2C22.8,2 22.8,2.1 22.6,2.3L0,39C0,39.3 0.3,39.6 0.6,39.6L10,39.6C10.3,39.6 10.5,39.4 10.7,39L16.6,29.5L26.6,39.5C26.7,39.6 26.8,39.6 26.8,39.6L34.7,39.6C35,39.6 35.3,39.3 35.3,39L35.3,30.1L35.2,10.1Z" style="fill:rgb(255,184,55);fill-rule:nonzero;"/>
            </g>
            <g transform="matrix(1,0,0,1,13.75,0)">
                <path d="M72.6,10.6L73.4,10.6C76.5,10.6 79.2,12.2 80.9,14.5C81,14.6 81,14.8 81.5,14.8L91.8,14.8C92.1,14.8 92.3,14.6 92.4,14.4L92.4,14.2C90.1,0.9 76.4,0 73.5,0C72,0 70.5,0.2 69.1,0.5C66.7,1 64.5,2 62.6,3.3L61.6,4L61.2,4.3L61.1,4.4C60.9,4.6 60.9,4.9 61,5.2L61.2,5.5L61.3,5.6C64.1,9.5 64.1,14 64.1,15.5C64.1,17.6 62.4,23.9 57.2,26.2C56.6,26.5 56.8,27.4 57.1,27.7C58.3,28.9 67.5,37.7 68.4,38.6C69.1,39.3 71.9,39.5 73.4,39.5C82.3,39.5 89.8,33.6 92.3,25.5L92.3,25.3C92.3,25.1 92.1,24.9 91.9,24.9L81.2,24.9C81.1,24.9 80.9,24.9 80.8,25.2C79.1,27.4 76.5,28.9 73.5,28.9C68.4,28.9 64.3,24.8 64.3,19.7C64.3,17.2 65.3,15 66.9,13.3C68.4,11.8 70.4,10.8 72.6,10.6" style="fill:rgb(255,184,55);fill-rule:nonzero;"/>
            </g>
        </g>
        <g transform="matrix(0.343575,0,0,0.343575,7.91802,44.7684)">
            <path d="M300.518,24.4L300.518,13.841C300.518,10.63 299.955,9.504 298.333,9.504C296.578,9.504 295.883,10.928 295.883,14.602L295.883,24.4L293.566,24.4L293.566,7.783L295.32,7.783L295.486,9.173C296.479,7.882 297.273,7.485 298.796,7.485C300.584,7.485 301.875,8.379 302.438,10.001C302.702,10.729 302.835,11.854 302.835,13.609L302.835,24.4L300.518,24.4ZM285.19,24.698C281.813,24.698 280.423,22.845 280.423,18.376L280.423,13.774C280.423,9.339 281.813,7.485 285.19,7.485C287.011,7.485 288.368,8.18 289.129,9.471C289.692,10.398 289.924,11.689 289.924,13.774L289.924,18.376C289.924,22.845 288.533,24.698 285.19,24.698ZM287.606,13.576C287.606,10.563 286.944,9.438 285.157,9.438C283.402,9.438 282.74,10.563 282.74,13.576L282.74,18.607C282.74,21.62 283.402,22.745 285.157,22.745C286.944,22.745 287.606,21.62 287.606,18.607L287.606,13.576ZM274.398,7.783L276.715,7.783L276.715,24.4L274.398,24.4L274.398,7.783ZM274.398,0.699L276.715,0.699L276.715,4.075L274.398,4.075L274.398,0.699ZM268.141,15.33C270.491,16.025 271.352,17.217 271.352,19.766C271.352,22.977 269.663,24.698 266.552,24.698C264.4,24.698 262.811,23.705 262.182,21.984C261.917,21.289 261.818,20.494 261.818,19.005L263.97,19.005C263.97,20.263 264.069,20.858 264.267,21.355C264.665,22.282 265.459,22.745 266.585,22.745C268.24,22.745 269.167,21.686 269.167,19.799C269.167,18.839 268.902,18.111 268.372,17.714C267.975,17.416 267.809,17.35 266.287,16.886C263.142,15.893 262.215,14.801 262.215,12.02C262.215,9.107 263.705,7.485 266.452,7.485C268.339,7.485 269.796,8.312 270.425,9.769C270.723,10.497 270.855,11.292 270.855,12.748L268.736,12.748C268.703,10.464 268.041,9.438 266.518,9.438C265.161,9.438 264.4,10.365 264.4,12.02C264.4,13.179 264.731,13.874 265.525,14.37C265.989,14.668 266.121,14.734 268.141,15.33ZM256.62,15.33C258.97,16.025 259.831,17.217 259.831,19.766C259.831,22.977 258.143,24.698 255.031,24.698C252.879,24.698 251.29,23.705 250.661,21.984C250.396,21.289 250.297,20.494 250.297,19.005L252.449,19.005C252.449,20.263 252.548,20.858 252.747,21.355C253.144,22.282 253.938,22.745 255.064,22.745C256.719,22.745 257.646,21.686 257.646,19.799C257.646,18.839 257.381,18.111 256.852,17.714C256.454,17.416 256.289,17.35 254.766,16.886C251.621,15.893 250.694,14.801 250.694,12.02C250.694,9.107 252.184,7.485 254.932,7.485C256.818,7.485 258.275,8.312 258.904,9.769C259.202,10.497 259.334,11.292 259.334,12.748L257.216,12.748C257.183,10.464 256.521,9.438 254.998,9.438C253.641,9.438 252.879,10.365 252.879,12.02C252.879,13.179 253.21,13.874 254.005,14.37C254.468,14.668 254.601,14.734 256.62,15.33ZM245,7.783L247.317,7.783L247.317,24.4L245,24.4L245,7.783ZM245,0.699L247.317,0.699L247.317,4.075L245,4.075L245,0.699ZM238.809,13.841C238.809,10.63 238.279,9.504 236.789,9.504C235.167,9.504 234.505,10.961 234.505,14.436L234.505,24.4L232.188,24.4L232.188,13.841C232.188,10.63 231.658,9.504 230.202,9.504C228.547,9.504 227.884,10.928 227.884,14.602L227.884,24.4L225.567,24.4L225.567,7.783L227.322,7.783L227.487,9.173C228.48,7.849 229.209,7.485 230.731,7.485C232.287,7.485 233.413,8.114 234.009,9.339C234.803,8.014 235.763,7.485 237.253,7.485C238.941,7.485 240.199,8.379 240.762,10.001C241.026,10.762 241.126,11.854 241.126,13.609L241.126,24.4L238.809,24.4L238.809,13.841ZM219.442,13.841C219.442,10.63 218.912,9.504 217.423,9.504C215.8,9.504 215.138,10.961 215.138,14.436L215.138,24.4L212.821,24.4L212.821,13.841C212.821,10.63 212.292,9.504 210.835,9.504C209.18,9.504 208.518,10.928 208.518,14.602L208.518,24.4L206.201,24.4L206.201,7.783L207.955,7.783L208.121,9.173C209.114,7.849 209.842,7.485 211.365,7.485C212.92,7.485 214.046,8.114 214.642,9.339C215.436,8.014 216.396,7.485 217.886,7.485C219.574,7.485 220.832,8.379 221.395,10.001C221.66,10.762 221.759,11.854 221.759,13.609L221.759,24.4L219.442,24.4L219.442,13.841ZM197.825,24.698C194.448,24.698 193.058,22.845 193.058,18.376L193.058,13.774C193.058,9.339 194.448,7.485 197.825,7.485C199.645,7.485 201.002,8.18 201.764,9.471C202.327,10.398 202.558,11.689 202.558,13.774L202.558,18.376C202.558,22.845 201.168,24.698 197.825,24.698ZM200.241,13.576C200.241,10.563 199.579,9.438 197.791,9.438C196.037,9.438 195.375,10.563 195.375,13.576L195.375,18.607C195.375,21.62 196.037,22.745 197.791,22.745C199.579,22.745 200.241,21.62 200.241,18.607L200.241,13.576ZM184.45,22.679C186.668,22.679 187.562,21.256 187.595,17.714L189.813,17.714C189.813,19.7 189.647,20.759 189.151,21.818C188.29,23.705 186.668,24.698 184.351,24.698C182.397,24.698 180.875,23.937 179.981,22.481C179.352,21.454 179.054,19.832 179.054,17.449L179.054,7.717C179.054,5.068 179.385,3.479 180.213,2.354C181.14,1.129 182.53,0.5 184.351,0.5C186.668,0.5 188.257,1.493 189.084,3.446C189.448,4.307 189.614,5.3 189.614,7.021L187.429,7.021C187.297,3.744 186.502,2.519 184.417,2.519C182.298,2.519 181.471,4.009 181.471,7.816L181.471,17.35C181.471,21.189 182.298,22.679 184.45,22.679ZM166.706,19.203L166.706,0.765L169.023,0.765L169.023,19.402C168.99,21.686 169.453,22.414 170.91,22.414L171.406,22.414L171.406,24.4L170.844,24.4C167.5,24.367 166.706,23.374 166.706,19.203ZM160.846,23.507C160.117,24.4 159.356,24.698 157.734,24.698C154.589,24.698 153.397,23.341 153.397,19.799C153.397,16.125 154.688,14.701 158.032,14.701L160.515,14.701L160.515,13.476C160.515,10.464 159.952,9.438 158.264,9.438C156.708,9.438 156.079,10.431 156.079,12.848L153.927,12.848C153.927,10.994 154.093,10.1 154.589,9.305C155.317,8.147 156.641,7.485 158.33,7.485C161.508,7.485 162.832,9.305 162.832,13.642L162.832,24.4L161.011,24.4L160.846,23.507ZM160.515,16.555L158.628,16.555C156.542,16.555 155.715,17.449 155.715,19.766C155.715,21.984 156.344,22.712 158.23,22.712C159.985,22.712 160.515,21.951 160.515,19.501L160.515,16.555ZM148.199,13.841C148.199,10.63 147.637,9.504 146.014,9.504C144.26,9.504 143.565,10.928 143.565,14.602L143.565,24.4L141.248,24.4L141.248,7.783L143.002,7.783L143.168,9.173C144.161,7.882 144.955,7.485 146.478,7.485C148.265,7.485 149.556,8.379 150.119,10.001C150.384,10.729 150.516,11.854 150.516,13.609L150.516,24.4L148.199,24.4L148.199,13.841ZM132.872,24.698C129.495,24.698 128.105,22.845 128.105,18.376L128.105,13.774C128.105,9.339 129.495,7.485 132.872,7.485C134.692,7.485 136.049,8.18 136.811,9.471C137.374,10.398 137.605,11.689 137.605,13.774L137.605,18.376C137.605,22.845 136.215,24.698 132.872,24.698ZM135.288,13.576C135.288,10.563 134.626,9.438 132.838,9.438C131.084,9.438 130.422,10.563 130.422,13.576L130.422,18.607C130.422,21.62 131.084,22.745 132.838,22.745C134.626,22.745 135.288,21.62 135.288,18.607L135.288,13.576ZM122.08,7.783L124.397,7.783L124.397,24.4L122.08,24.4L122.08,7.783ZM122.08,0.699L124.397,0.699L124.397,4.075L122.08,4.075L122.08,0.699ZM113.406,32.114C111.552,32.114 110.261,31.385 109.665,30.028C109.367,29.333 109.268,28.605 109.268,27.214L111.353,27.214C111.353,29.333 111.949,30.194 113.406,30.194C115.193,30.194 115.789,29.101 115.789,25.989L115.789,23.573C114.895,24.4 114.2,24.698 112.942,24.698C110.029,24.698 108.705,22.646 108.705,18.177L108.705,13.642C108.705,9.405 110.029,7.485 112.876,7.485C114.299,7.485 115.16,7.915 116.021,9.041L116.286,7.783L118.106,7.783L118.106,25.692C118.106,30.227 116.716,32.114 113.406,32.114ZM115.789,14.801C115.789,11.192 114.995,9.504 113.306,9.504C111.784,9.504 111.022,10.828 111.022,13.51L111.022,18.343C111.022,21.256 111.784,22.679 113.339,22.679C114.995,22.679 115.789,20.958 115.789,17.383L115.789,14.801ZM98.442,18.607C98.442,21.587 99.104,22.745 100.825,22.745C102.547,22.745 103.242,21.686 103.242,19.17L105.427,19.17C105.394,20.892 105.228,21.818 104.798,22.712C104.103,23.97 102.679,24.698 100.792,24.698C97.515,24.698 96.125,22.745 96.125,18.144L96.125,14.072C96.125,9.405 97.482,7.485 100.792,7.485C104.136,7.485 105.493,9.405 105.493,14.072L105.493,16.489L98.442,16.489L98.442,18.607ZM103.242,14.635L103.242,13.476C103.242,10.53 102.58,9.438 100.825,9.438C99.071,9.438 98.442,10.53 98.442,13.476L98.442,14.635L103.242,14.635ZM90.43,24.4L87.153,13.973L84.538,13.973L84.538,24.4L82.121,24.4L82.121,0.765L86.656,0.765C89.073,0.765 90.397,1.228 91.39,2.486C92.284,3.546 92.714,5.135 92.714,7.319C92.714,10.994 91.754,12.848 89.437,13.708L93.078,24.4L90.43,24.4ZM90.298,7.452C90.142,5.838 89.967,4.506 89.338,3.777C88.742,3.049 88.014,2.784 86.557,2.784L84.472,2.784L84.472,12.02L86.458,12.02C88.08,12.02 90.599,10.568 90.298,7.452ZM70.6,23.507C69.872,24.4 69.11,24.698 67.488,24.698C64.344,24.698 63.152,23.341 63.152,19.799C63.152,16.125 64.443,14.701 67.786,14.701L70.269,14.701L70.269,13.476C70.269,10.464 69.706,9.438 68.018,9.438C66.462,9.438 65.833,10.431 65.833,12.848L63.681,12.848C63.681,10.994 63.847,10.1 64.344,9.305C65.072,8.147 66.396,7.485 68.084,7.485C71.262,7.485 72.586,9.305 72.586,13.642L72.586,24.4L70.766,24.4L70.6,23.507ZM70.269,16.555L68.382,16.555C66.297,16.555 65.469,17.449 65.469,19.766C65.469,21.984 66.098,22.712 67.985,22.712C69.739,22.712 70.269,21.951 70.269,19.501L70.269,16.555ZM56.696,19.534L56.696,9.736L55.273,9.736L55.273,7.783L56.696,7.783L56.795,2.453L59.013,2.453L59.013,7.783L61.198,7.783L61.198,9.736L59.013,9.736L59.013,19.766C58.98,21.785 59.411,22.447 60.735,22.414L61.231,22.414L61.231,24.4L60.536,24.4C57.391,24.4 56.663,23.474 56.696,19.534ZM50.207,13.841C50.207,10.63 49.644,9.504 48.022,9.504C46.268,9.504 45.573,10.928 45.573,14.602L45.573,24.4L43.255,24.4L43.255,7.783L45.01,7.783L45.175,9.173C46.168,7.882 46.963,7.485 48.486,7.485C50.273,7.485 51.564,8.379 52.127,10.001C52.392,10.729 52.524,11.854 52.524,13.609L52.524,24.4L50.207,24.4L50.207,13.841ZM37.428,23.507C36.7,24.4 35.939,24.698 34.317,24.698C31.172,24.698 29.98,23.341 29.98,19.799C29.98,16.125 31.271,14.701 34.615,14.701L37.097,14.701L37.097,13.476C37.097,10.464 36.535,9.438 34.846,9.438C33.29,9.438 32.661,10.431 32.661,12.848L30.51,12.848C30.51,10.994 30.675,10.1 31.172,9.305C31.9,8.147 33.224,7.485 34.913,7.485C38.09,7.485 39.415,9.305 39.415,13.642L39.415,24.4L37.594,24.4L37.428,23.507ZM37.097,16.555L35.21,16.555C33.125,16.555 32.297,17.449 32.297,19.766C32.297,21.984 32.926,22.712 34.813,22.712C36.568,22.712 37.097,21.951 37.097,19.501L37.097,16.555ZM23.856,19.203L23.856,0.765L26.173,0.765L26.173,19.402C26.14,21.686 26.603,22.414 28.06,22.414L28.556,22.414L28.556,24.4L27.993,24.4C24.65,24.367 23.856,23.374 23.856,19.203ZM16.44,19.534L16.44,9.736L15.016,9.736L15.016,7.783L16.44,7.783L16.539,2.453L18.757,2.453L18.757,7.783L20.942,7.783L20.942,9.736L18.757,9.736L18.757,19.766C18.724,21.785 19.154,22.447 20.478,22.414L20.975,22.414L20.975,24.4L20.28,24.4C17.135,24.4 16.407,23.474 16.44,19.534ZM10.513,19.104L4.224,19.104L3.098,24.4L0.483,24.4L6.342,0.765L8.362,0.765L14.221,24.4L11.639,24.4L10.513,19.104ZM7.369,4.34L4.654,17.118L10.083,17.118L7.369,4.34Z" style="fill:rgb(77,77,80);"/>
        </g>
    </g>
</svg>
